<?xml version="1.0" encoding="utf-8" standalone="no"?>
<!DOCTYPE svg PUBLIC "-//W3C//DTD SVG 1.1//EN"
  "http://www.w3.org/Graphics/SVG/1.1/DTD/svg11.dtd">
<svg xmlns:xlink="http://www.w3.org/1999/xlink" width="159.397935pt" height="338.4pt" viewBox="0 0 159.397935 338.4" xmlns="http://www.w3.org/2000/svg" version="1.1">
 <metadata>
  <rdf:RDF xmlns:dc="http://purl.org/dc/elements/1.1/" xmlns:cc="http://creativecommons.org/ns#" xmlns:rdf="http://www.w3.org/1999/02/22-rdf-syntax-ns#">
   <cc:Work>
    <dc:type rdf:resource="http://purl.org/dc/dcmitype/StillImage"/>
    <dc:date>2025-06-13T22:21:05.241989</dc:date>
    <dc:format>image/svg+xml</dc:format>
    <dc:creator>
     <cc:Agent>
      <dc:title>Matplotlib v3.10.1, https://matplotlib.org/</dc:title>
     </cc:Agent>
    </dc:creator>
   </cc:Work>
  </rdf:RDF>
 </metadata>
 <defs>
  <style type="text/css">*{stroke-linejoin: round; stroke-linecap: butt}</style>
 </defs>
 <g id="figure_1">
  <g id="patch_1">
   <path d="M 0 338.4 
L 159.397935 338.4 
L 159.397935 0 
L 0 0 
L 0 338.4 
z
" style="fill: none"/>
  </g>
  <g id="axes_1">
   <g id="patch_2">
    <path d="M 7.2 331.2 
L 152.197935 331.2 
L 152.197935 7.2 
L 7.2 7.2 
L 7.2 331.2 
z
" style="fill: none"/>
   </g>
   <g id="matplotlib.axis_1"/>
   <g id="matplotlib.axis_2"/>
   <g id="line2d_1">
    <path d="M 151.32692 -1 
L 145.619388 13.127662 
L 139.066519 28.760981 
L 133.841515 40.752325 
L 127.768543 54.12662 
L 122.462707 65.280963 
L 117.331356 75.559487 
L 113.22481 83.394815 
L 108.540531 91.869981 
L 104.902853 98.080313 
L 100.826749 104.614081 
L 97.131262 110.109442 
L 93.50637 115.06061 
L 90.576709 118.712092 
L 87.548547 122.126652 
L 85.17181 124.531022 
L 82.241539 127.139221 
L 79.79501 129.000563 
L 77.96418 130.199155 
L 76.038823 131.277858 
L 73.712542 132.333437 
L 71.208786 133.174014 
L 68.980574 133.677427 
L 66.935039 133.951973 
L 64.135288 134.06858 
L 61.522378 133.948334 
L 58.070524 133.529785 
L 53.530922 132.698571 
L 44.645536 130.983429 
L 40.886785 130.529582 
L 37.793001 130.394491 
L 35.823367 130.45208 
L 33.232135 130.732826 
L 30.748263 131.258953 
L 28.349196 132.050055 
L 26.290578 132.989719 
L 24.125044 134.285563 
L 22.077593 135.8566 
L 20.471639 137.37209 
L 19.121006 138.878381 
L 17.393577 141.183933 
L 16.226776 143.041692 
L 14.678516 146.005596 
L 13.564112 148.623828 
L 12.438555 151.895665 
L 11.594516 155.024265 
L 10.884561 158.506966 
L 10.386322 162.025937 
L 10.087897 165.598334 
L 9.988422 169.200001 
L 10.136116 173.585747 
L 10.459827 177.000802 
L 11.0027 180.557594 
L 11.748267 184.007163 
L 12.54712 186.856724 
L 13.420469 189.399633 
L 14.755948 192.559143 
L 16.217301 195.342044 
L 17.613137 197.536236 
L 19.069434 199.459356 
L 20.713283 201.273867 
L 22.29822 202.730928 
L 24.169451 204.144551 
L 26.048219 205.281877 
L 28.328972 206.341954 
L 30.736236 207.137814 
L 33.23929 207.668305 
L 35.81932 207.947671 
L 38.400888 207.99929 
L 41.146728 207.848196 
L 44.238828 207.477958 
L 48.635673 206.70365 
L 58.896986 204.748102 
L 62.404616 204.389226 
L 64.8307 204.334698 
L 67.456073 204.501837 
L 69.640935 204.84873 
L 71.460469 205.297024 
L 73.741644 206.078113 
L 75.807238 207.004956 
L 78.437741 208.494755 
L 80.872058 210.182625 
L 82.828992 211.751118 
L 85.395268 214.084264 
L 88.493235 217.297533 
L 91.464427 220.759501 
L 94.706136 224.927145 
L 97.912652 229.416376 
L 101.374333 234.635935 
L 105.133272 240.702828 
L 108.955129 247.259091 
L 113.856216 256.186139 
L 118.491075 265.117575 
L 123.108313 274.448526 
L 128.732635 286.354473 
L 134.610442 299.384962 
L 139.967411 311.749862 
L 145.869641 325.881993 
L 151.326173 339.4 
L 151.326173 339.4 
" clip-path="url(#p5328b73873)" style="fill: none; stroke: #ffffff; stroke-width: 6; stroke-linecap: square"/>
   </g>
  </g>
 </g>
 <defs>
  <clipPath id="p5328b73873">
   <rect x="7.2" y="7.2" width="144.997935" height="324"/>
  </clipPath>
 </defs>
</svg>
